# xmcd
#
# Track frame offsets:
#	150
#	15581
#	30796
#	46150
#	61951
#	76810
#	94908
#	112625
#	129769
#	147185
#	165507
#	176877
#
# Disc length: 2537 seconds
#
# Revision: 0
# Processed by: cddbd v1.5.2PL0 Copyright (c) Steve Scherf et al.
# Submitted via: dBpowerAMP V4.0
#
DISCID=8109e70c
DTITLE=P.J. Murrihy - Absent Friends
DYEAR=1900
DGENRE=
TTITLE0=The lodger
TTITLE1=A new moon over Jamaica
TTITLE2=Fly away
TTITLE3=Green hills
TTITLE4=We'll meet again
TTITLE5=Harvest day
TTITLE6=Clare to here
TTITLE7=Donegal shore
TTITLE8=Absent friends
TTITLE9=Fields of Eris
TTITLE10=Paidí'O Sé's Pub
TTITLE11=Tom Crean
EXTD=
EXTT0=
EXTT1=
EXTT2=
EXTT3=
EXTT4=
EXTT5=
EXTT6=
EXTT7=
EXTT8=
EXTT9=
EXTT10=
EXTT11=
PLAYORDER=
